<mxfile host="app.diagrams.net" modified="2022-09-05T18:08:45.894Z" agent="5.0 (Windows NT 10.0; Win64; x64) AppleWebKit/537.36 (KHTML, like Gecko) Chrome/104.0.0.0 Safari/537.36" etag="nByX_71i3fuaFKJZEIdP" version="20.2.7" type="github">
  <diagram id="wqoSmEnJ8CbPwU6DGFVL" name="Page-1">
    <mxGraphModel dx="1422" dy="737" grid="1" gridSize="10" guides="1" tooltips="1" connect="1" arrows="1" fold="1" page="1" pageScale="1" pageWidth="850" pageHeight="1100" math="0" shadow="0">
      <root>
        <mxCell id="0" />
        <mxCell id="1" parent="0" />
        <mxCell id="i3Yv_NpqQilnctsLPiVK-3" value="" style="shape=image;verticalLabelPosition=bottom;labelBackgroundColor=default;verticalAlign=top;aspect=fixed;imageAspect=0;image=data:image/jpeg,iVBORw0KGgoAAAANSUhEUgAAAgAAAAIACAYAAAD0eNT6AABBu0lEQVR42u3dC7gkZ13n8Xqrqvt0d+aSyZ0kM2fOORNyUSIuAtGggRBFeUDA6IOLy64PKKy7rqyKy0VXWJ9dUGRR1itrNKvCgsAiiC5XhRHlIka5JZtkzpzLZHKZhMwlzJzT3aer333fPlWHSp3qy6nuqq636lvPc57uZKo/1f2v961fVXVXvZbFxMTExMTEVLpJjAvccsszRcSRn/zkpyUeHh4eHh5efj13zPB3ov9PLbyLh4eHh4eHl2/PTbhgvcfhRPc81J+Hh4eHh4eHl3/PTbhwN27hSU5l4OHh4eHh4WXvuQkWXo1Z+MYYHwYPDw8PDw8vQ29HOwD+wmdiFt4e48Pg4eHh4eHhZegFpjvijLZ6qMUsvJXww+Dh4eHh4eFl72lHm9IdceH1mIU3k/yCEQ8PDw8PD28qXvADwt6OgzviwsOXG+iFro/xYRr+3gceHh4eHh5eNp4IZf7gHQB/5vBpB+G/aG2MD7MrZk8GDw8PDw8PLz0v+AGhDMLf6vcVwIAfHJyd8IfBw8PDw8PDS9erho/89aR/P+AO2FMQkdMOaxQbDw8PDw/PKK8WPfJXVu+mQW5M+MfdZGCdYuPh4eHh4Rnl1SNH/o+7Y2D0DEDc7QWbFBsPDw8PD88orxET/p3wpYNu6AVx4d+i2Hh4eHh4eMZ5euqGvG03DXL9F0SHBR7njkWsPDw8PDw8vOl6MnIwvy3PgzMAk7pXMSsPDw8PDw8vP16zX567MUf+HuGPh4eHh4dntDf0pkF25L8Jfzw8PDw8PPO9oZfub90WMMmCKTYeHh4eHp6ZnrDGmCg2Hh4eHh6emV7iHQCKjYeHh4eHZ66XaAeAYuPh4eHh4ZntCYqDh4eHh4dXPk9QHDw8PDw8vHJ5O9oBoNh4eHh4eHjFCH99B2BBcfDw8PDw8ErjaUeb0h5x4Q2KjYeHh4eHZ3z4O8F/2yMsvB6Zj2Lj4eHh4eGZF/5u2LOHzFyj2Hh4eHh4eMaHfzXquQNmnqHYeHh4eHh4xnvVkNOb9Lg/7oh7CnqhaxQbDw8PDw/PKK/mG0H467F/PP3EjQl/N2bh6xQbDw8PDw/PKK8eOfLXj14wT/QMgBOz8CbFxsPDw8PDM8prxIR/R5/637YDoF4QF/4tio2Hh4eHh2ecp6duyGuHw39rB8A/9W9FFr5tZoqNh4eHh4dnhCcjB/Pb8jw4AxBd+Abhj4eHh4eHZ7zX7JfnbsyRv0f44+Hh4eHhGe1pZ+AP+KM3AiL88fDw8PDwzPeGXrofnAGQY4woRLHx8PDw8PAM84Q1xkSx8fDw8PDwzPQS7wBQbDw8PDw8PHO9RDsAFBsPDw8PD89sT1AcPDw8PDy88nmC4uDh4eHh4ZXL29EOAMXGw8PDw8MrRvjrOwALioOHh4eHh1caTzvalPaIC29QbDw8PDw8POPD3wn+2x5h4fXIfBQbDw8PDw/PvPB3w549ZOYaxcbDw8PDwzM+/KtRzx0w8wzFxsPDw8PDM96rhpzepMf9cUfcU9ALXaPYeHh4eHh4Rnk13wjCX4/94+knbkz4uzELX6fYeHh4eHh4Rnn1yJG/fvSCeaJnAJyYhTcpNh4eHh4enlFeIyb8O/rU/7YdAPWCuPBvUWw8PDw8PDzjPD11Q147HP5bOwD+qX8rsvBtM1NsPDw8PDw8IzwZOZjflufBGYDowjcIfzw8PDw8POO9Zr88d2OO/D3CHw8PDw8Pz2hPOwN/wB+9ERDhj4eHh4eHZ7439NL94AyAHGNEIYqNh4eHh4dnmCesMSaKjYeHh4eHZ6aXeAeAYuPh4eHh4ZnrJdoBoNh4eHh4eHhme4Li4OGVwhMHDhy4rFKpHKpU3IVut3tRtytrtm07UnY3PK/7iBDi4U6ns9psNo+cOHHiHPXDwyu2JygOHl4hPbGwsPAvVNA/Rz3/bvX3VBXwF6rA3zajmif6v6T6f4tq3s+r559SOwUfPXbs2IOsDzy84ng72gGg2Hh4+fdU6B/yPO/l6ulLVIAfCP/biOEfN+nl/p2U8o/r9fqf3XXXXWdZH3h4Zoe/vgOwoDh4eOZ7Kvi/SwX069TT58X9+xjhH53OqLfyjt27d7/j4osveJT1gYdnnKcdbUox4sL1qEIOxcbDy5c3Ozt7rRDirSrgn9vPnGD4h701dfjwW3v37n77+efvPcf6wMMzJvwd3xi8AxAaTzg8UiDFxsObsnfo0KEZz/N+SR31v1YFsptx+IenY+p9vHJ5efmjrF88vNyHf7Ct6A7cAfBnrvunCmzrm6MLUWw8vCl66qj/Gsdx3q2ePnmHYT3p8A97v63+/dWLi4st1i8eXi7Dvxoc+fs7AF0xYOaZ0JF/0PMpNh7eFL2FhYUXqCPud6qw3ZWj8A+mL6odkxcdOXLkftYvHl6uvGr4yF8/KsuzB+wpREcVoth4eFP05ufnXyWl/POchr+enrqxsfF59T6/lfWLh5cbrxb1dPhbVmQ0wNB3BDseVYhi4+Gl583Nzb1ePfymNeTS3SmGfzD/lerh8KFDh76d9YuHN3WvHuN5W/018honZuZ1io2HN9Xw/3khxH+bdFin6F3ged4n9BUKrF88vKl5jRivozwZ/A8ReoFjffPHfkHPb1NsPLypfuf/YinlewwK//C0qt770xcWZh9h/eLhZe71um3oqL8VDv+tMwD+qX8rsvAWxcbDm+qv/Z+sAvR2Q8O/9xGEEO/vdLzzWb94eFP1toW/FTrSj87cjpuZYuPhZeNdd911u1R4vtfa/A7PxPAPvGc88MBDr2f94uFNzWv2y3M75si/Q/jj4U3Xazabv6bC8yrDw9835M898MCJp7F+8fAy9bQz8Dd80R7vEf54eNP1FhYWvlM9/LsihH9whrHZbL397Nl1vlbEw8vOG3r1XnBbQDnGiEIUGw9vcp7ted7/iAtkQ8M/mK595JGvv0I9/hbtBQ8vH56wxpgoNh7eZL25ubkfFkK8r0jhH3jq8eH19fX5EydOnKO94OFN37MJfzy83Hgq+8UvFjH8/X+/pNFovIL2goeXDy/RDgDFxsObvLewsHCT1WeAH9PDP7SH8yrr8UOL017w8Kbk2RQHDy8fngrMVxY5/P1pdn5+/vtoL3h40/dsioOHN33v6quv3q2Ojl9Y8PAPph+jveDhTdfb0Q4AxcbDS8/rdDrPtTZH7Sp6+Ot5fvC6666r0l7w8KYX/voOwC7FwcObvqdC8QeEEIUPf/+1u1ut1o3q6adoL3h4mXvBeD/SHnHhDYqNh5eep8L/pjKEf2j+m2gveHhTCf+tH+GKERZetx4/TDDFxsOboDc3N3ep2gF4qCzh708fm58/8FzaCx5epuEfnPXvDjwD4M9co9h4eKl715cs/PX0JNoLHl6m4V+NevaAmWcoNh5e+p46+r+qZOGvvctPnjy1i/aCh5eJF81zS4/7Y4+4p9Cl2Hh46XhqB2ChZOHfe2w221fQXvDwUve2nclXltfrizHh71oJRhWi2Hh4yTwViBeVLfw3HXkR7QUPL1WvHuN5wX9ELwN0YmZuUmw8vPQ8KeV5ZQt/v3wN2gseXmpeI+QEjx196n+rT4ZeQPjj4U3BE2LzfhzlCn/LarXaHdoLHl5qnh3x2uHw3zoD4J/6t4bNTLHx8CbvSdntdLs77mpGh7/21I5Pm/aCh5eaFz7yb8XlefAVQHThG4Q/Hl42ngr/M2ULf//xHO0FDy91r9kvz+2YI/8O4Y+Hl50npXykbOG/eeZj9M9Ne8HD27GnnfVBXrSHeoQ/Hl7m3n1lC389nXfeeffRXvDwUvOGXr0XfAUgxxhRiGLj4Y3hqSPhxfBAQGUIfzU9dNddd52lveDhTc/r9dQkR/0UGw9vMp4Kx6+ULPz19FXaCx7edD07aUen2Hh4k/GOHTv2oArJoafDi3S7YCnl52kveHjT9RLtAFBsPLzJeio8D5cl/P3pb2kveHjT9WyKg4c3fU8dEX+0ROF/znGcz9Be8PCm69kUBw9v+p4Q4i9VaLZLEP56Z+cvFxcXW7QXPLzpeTvaAaDYeHjpeUtLS2dUmH646OHvT++iveDhTTf89R2AXYqDh5cPTx0Zv0MIcWuRw199xvsPHDjwkeXlZdoLHt50POEf/Et7xIU3KDYeXrqeCsVPqhD9WoGP/PVXHW8/fPhwh/aChze18He2+vIIC69b20cVoth4eCl0zpmZ6tuKGv7q6P/RSqXy+7QXPLyphb8b9uwhM9coNh5edt4ll1z4QSt0k5yCDRH8pnvuuecbtBc8vKmEfzXq2QNmnqHYeHjZejMzM13HcV5bwPC/p16v/zbtBQ9vKl40z3t3AHYG7CnY/guCcYXPUWw8vPS9vXt3Hzt58vSl6um3FyT89fy3HjlyZIn1i4eXuVeLWHrsH8+yIl8BxH1HYI04qhDFxsObnKdC92fV43IRwl9Nb1tZWflb1i8eXuZePcbztvp35DVOzMzrFBsPL1tvcXHxMSnli+NuDmRY+H9BOa9n/eLhZe7FXb3XCQ/+54Re4FiPP+2vpxbFxsObjnf69OkHLrjgAj1I0AsNDf8HlPN9Bw9eeYb1i4c3FS8Ie+20oyP/Ov4LRCj4gzfRTjJMMCsPD29y3qlTp768b98+/f+fZVj4n1Gv+d75+QNHWb94eFPzpP/XjMvz3g7A/PzB6JH/BuGPh5cPT+0EfEbtBOgf5n63CeGv5n9M/X3/VVfN/TPrFw9vql63X/iHdwDC4e8R/nh4+fLUTsBfq50APYDOLTk/8j+hT/svLMzewfrFw5t6+A/8DV+0xxP+eHg59ZaWln5VPfxL3alzGv5f9jzvhrm5/V9i/eLhTd0bevVeMBiQHGNEIYqNh5eRNz9/4L333//Q6sZG53b1n1fnKPxvW19ff9W3fMvVTdYvHp4ZnrN5ZLGSaMNBsfHwsvf27Nn1dcX873Z7oyql9VQV1mKK4f+AEOKlS0tLv37DDd/hsX7x8MzxEm84KDYe3vS9paXVhW5XvlUF+c1Zhr+ar6WC/zcdx3mTvmcB6wMPzzwv0Q4AxcbDy5Un5ufnb1ah/DoV6s9OOfzXpJS3ua77liNHjtzP+sDDM9cTFAcPrzje3Nzck9TDy9XR+Y+qx0snGP5fVMH/J57nvevYsWOnWB94eOZ7guLg4RXSc+bn529Qof39amdA3z/gO9TfeaOGv3rd/ep1n1WPn1L//pHV1dUV1gceXnG8He0AUGw8PHO9hYU597zzdl3XbrfnVKhf4XndC1TA19URvbb09/ln1P9/RD2uViqVe+++++5HqR8eXnHDX98BWFAcPDw8PDy80nja0aa0R1x4g2Lj4eHh4eEZH/5bgwDaIyy8HpmPYuPh4eHh4ZkX/m7Ys4fMXKPYeHh4eHh4xod/Neq5A2aeodh4eHh4eHjGe9WQ05v0uD/uiHsKeqFrFBsPDw8PD88or+YbQfjrsX/0bbstNyb83ZiFr1NsPDw8PDw8o7x65MhfP3rBPNEzAE7MwpsUGw8PDw8PzyivERP+HX3qf9sOgHpBXPi3KDYeHh4eHp5xnp66Ia8dDv+tHQD/1L8VWfi2mSk2Hh4eHh6eEZ6MHMxvy3MRelFwdyArepqAYuPh7dw7dOjQdd1u99uklFervycKIQ7atr1PPd+lHrXb+2WummfHfS2YlLPtbp6mefq/1Xz6e8mm+jup6nNCPR5Tf/eqv6+of//i6urqQ7Q/PLwdecH3/X1/wxfdAdB/HuGPh7dz75prrrmw2Wz+kAqzW1RoPVM9XhIJQysmDJNma6k89bqjrusedl3no5dddsmn1OMG7Q8Pb6Cnw3/g1XvRHYAu4Y+HN7p30003uffdd9/z1VHrv1F/z1WhVyl7WGfgnVZ/H/C8zu8sL6/8E+0ZDy+ZF+wAiCTBT7HxyurNzs7WVCi9XAjxC/o/CeupeYfV8zevrKx8jPaMh7czT1hjTBQbr4SePT8//5Pq8Y3q7zLCOh+e+n9/rx5+Xu0IfIH2jIc3mpd4B4Bi45XNW1hYeIqU8vfU06cS1rn09Pq6vdPpvPrYsWOnaM94eCnsAFBsvJJ5jjrq/xX1+FpryAiahHUuvIfUvD8efC1Ae8bDm9AOAMXGK5O3f//+yyuVynvUf3834WqUJ9X0lk6n/Z+vvvqqOu0ZD2/75FAcPLx4b25u7qlCiL9Vf9cRrsZ5arWJZ1Qq1e9Sjx+p1Wba9A88vIRnACg2XsnC/3vVEeQH/Bv2EK5me3fu2tV40UUXXXCC/oGHt2UKQXHw8LaF/60q/N/d75p+wtVIb7HT6TxrZWXlOP0Dr+RecNdfKUZcuB5VyKHYeCUI/1tU+P+VCpAq4Vo47/+5rvs9995779fpH3glDn/HNwbvAITGEw6PFEix8Qrp6cv8PM/7NKf9i+up559VO3jPXl1dbdI/8EoY/sEIwPr10h4yc41i45XBm5+fv0QFw4cJ/2J7ap7vchznD+gfeCUM/2rUcwbMPGNtfk8gQi+i2HhF9Ox9+/Z9QD1+G+FaCu96tb5PnDp16h/pH3gl8WasyBDB2rJH3FPoUmy8onpzc3P6Bj/fS7iWynvb7OzstfQPvBJ4287kK8uzrMhdzULfEUQXvkax8YroqRC4Rkr5BsK1dF7dcZw/Cm8D6R94BfTiboLlbfWfyGucmJnXKTZeUT0hxO+M+ot/wrVw3g3z8/OvoH/gFdRrxHid8Mi/IvQCx/rmd/5Bz2pTbLyiemrj/6Pq4d2EYXk9KeWjynri3Nz+Dv0Dr2Ber1uEjvpb4fDfOgPgn/q3IgtvUWy8Anu2CoxfIQzL7QkhLlTe6+gfeAX3toW/FTrSj87cjpuZYuMVxVtYWPgRteG/ijDE8zzvp06ePL2X/oFXUK/ZL8/tmCP/DuGPV3RPSvl6whDPfzzv7Nm1l9E/8ArmaWfgb/hE6MX6eZfwxyu6Nz8//wz18BnCEC803SelN3/06HKH/oZXFi+4LaAcY0Qhio1nmvevCUO8iLe/25U3q6cfp3/glcXr3QlwaWklUUei2HimebOzszUVAPr67xphiBf2pJSd06dPf4j+hlcWz07akSg2nomeCoBnq4fzCUO8qKf+/QWjbhPpb3hF8BLtAFBsPFM9IcSzCUO8Pt4Fs7OzT6O/4ZXFsykOXsm8mwlDvH6e4zjPpL/hlcWzKQ5eWTx1dHe+erieMMQbMN1If8Mrg7ejHQCKjWe657rudeHXE4Z4Mf/+ZPobXhnCX98B2KU4eGXxpJRXE4Z4Q1535aFDh/YsLi4+Rn/DK6gXjPcj7REX3qDYeKZ7wQ4AYYg3aOp0OnP0N7wCh7+z1VdGWHg9Mh/FxjPSUzsABwhDvBGMK+hveAUNfzfs2UNmrlFsvKJ4lYq7jzDEGzYJIS6iv+EVMPyrUc8eMPMMxcYrkiel3EUY4o1wpmgP/Q2vYF40zy097o894p5Cl2Ljme6FdwAIQ7x+k+M4u+lveAXytp3JV5ann7gx4e/GLHydYuOZ7glh7yIM8UbwGvQ3vIJ49ZATPHrBPNHLAJ2YhTcpNl5BvAsJQ7zhnryQ/oZXAK8RE/4dfep/2w6AekFc+LcoNl5RPBUOiQe/IlzL5PXuj0J/wzPd63WLkNcOh//WDoB/6t+KLHzbzBQbz2SPMMQb1aO/4RXAk5GD+W15HrR8Qfjj4RGGeJbled4G/QOvQF6zX567MUf+HuGPR/gThiX22P7hFcHTzsAf8Ed7AOGPR/gThnj0DzzzvbVhXnAGQI4xohDFxiP88Qh/+hueYV6vJyQ56qfYeIQ/HuFPf8Mz10t8WRTFxiP88Qh/+hueuZ5N48cj/AlDPPoHXvk8m+LgEf6EIR79A698nk1x8Ah/whCP/oFXwu0fxcEj/AlDPPoHXrm2f/oOwC7FwSP8Jxc2QoiPqLd2j5R67AFvQz9uvWEpn6Hmu5FwHep9Qv19LVo/v4Y/rOZdIPzx8BJ7wj/4l+6IC29QbDzCf7innr9///4nvD/u/c3Nzb1RPdw4zfdngqd2ov5idvaK341bvwcPHvxW9bBA+OPhJQ5/xzcGfwUQGk/Ypth4hP8onuRriTE9z/Naeagf/Q2vgOHvhj17yMw1io1XFE9NIu3w6nS8JuE/niellNN+f/Q3vAKGfzXquQNmnqHYeAXzsgjDqYcX3tieoL/hFcyrhpzepO8A7I64p6AXukax8QriEYZ4fSfHcSr0N7wCeTXfCMJfj/3j6SduTPi7MQtfp9h4hD/hWkKP/oZnslePHPnrRy+YJ3oGwIlZeJNi4xH+hCHhT3/DM8prxIR/Jzz4nxt6QVz4tyg2XlE8FQ6Jvp8nDAl/+huegV6vW4S8dnTkX9d/gYhp/O0kwwSz8vDy6hGGhfBEFu+P/oZXAE9GDua35XnQ8gXhj4eXbngJNRH+412a5zi2k/b78zxvg/6BVyCv2S/P7Zgj/w7hj0f4pxJeVcJ/3OvyRRbvj+0fXhE87Qz8AX+0B3iEPx7hn8lNZQj/gtSP/oaXU2/opfvBjwDlGCMKUWw8wp/wJ/zpb3iGeb0dgCRH/RQbj/An/LOvn7TGuJiD8MfDC/eHpB2JYuMR/jt/f4T/ePXzvK5H+OPhTcazafx4hH9m4dUm/IdP+moJq/+lnAwUhIc3Ic+mOHiEfzbhlYdR7kzwHMeZsQzbuaO/4Zno2RQHj/CfXHi5rlPL8/szwVO7UIQ/Hl4W2z+Kg0f4TzIMBeE/OY/wx8NLafun7wDsUhw8wr/Y4UX4E/54eOHg9w/+pT3iwhsUG4/wJ/yz8KQk/PHwUgz/rdtp2yMsvB6Zj2LjEf59PUn4j+l5ntci/PHwUgl/N+zZQ2auUWy8onhqEmmHV6fjNQn/8bw8XC1Bf8MrYPhXo547YOYZio1XMC+LMORSP/M9QX/DK5hXDTm9Sd8B2B1xT0EvdI1i4xXEIwzx+k6O41Tob3gF8mq+EYS/Hvund0dNNyb83ZiFr1NsPMKfcC2hR3/DM9mrR4789ePW7bSjZwCcmIU3KTYe4U8YEv70NzyjvEZM+HfCg/+5oRfEhX+LYuMVxeuOMYwcYUj409/wDPN63SLktaMj/7r+C0RM428nGSaYlYeXV48wLIQnsnh/9De8AngycjC/Lc+Dli8Ifzy8dMNLDxRE+I93aZ7j2E7a78/zvA36B16BvGa/PLdjjvw7hD8e4Z9KeFUJ/3GvyxdZvD+2f3hF8LQz8Af80R7gEf54hH8mN5Uh/AtSP/obXk69oZfuBz8ClGOMKESx8Qh/wp/wp7/hGeb1dgCSHPVTbDzCn/DPvn7SGuNiDsIfDy/cH5J2JIqNR/jv/P0R/uPVz/O6HuGPhzcZz6bx4xH+mYVXm/AfPumrJaz+l3IyUBAe3oQ8m+LgEf7ZhFceRrkzwXMcZ8YybOeO/oZnomdTHDzCf3Lh5bpOLc/vzwRP7UIR/nh4WWz/KA4e4T/JMBSE/+Q8wh8PL6Xtn74DsEtx8Aj/YocX4U/44+GFg98/+Jf2iAtvUGw8wp/wz8KTkvDHw0sx/Ldup22PsPB6ZD6KjUf49/Uk4T+m53lei/DHw0sl/N2wZw+ZuUax8YriqUmkHV6djtck/Mfz8nC1BP0Nr4DhX4167oCZZyg2XsG8LMKQS/3M9wT9Da9gXjXk9CZ9B2B3xD0FvdA1io1XEI8wxOs7OY5Tob/hFcir+UYQ/nrsn94dNd2Y8HdjFr5OsfEIf8K1hB79Dc9krx458tePW7fTjp4BcGIW3qTYeIQ/YUj409/wjPIaMeHfCQ/+54ZeEBf+LYqNVxSvO8YwcoQh4U9/wzPM63WLkNeOjvzr+i8QMY2/nWSYYFYeXl49wrAQnsji/dHf8ArgycjB/LY8D1q+IPzx8NINLz1QEOE/3qV5jmM7ab8/z/M26B94BfKa/fLcjjny7xD+eIR/KuFVJfzHvS5fZPH+2P7hFcHTzsAf8Ed7gEf44xH+mdxUhvAvSP3ob3g59YZeuh/8CFCOMaIQxS6Rd/r0mcaZM994med1n6M2mJcdPHgwuiXtCiHuV38f9DzvHaurq03Cn/An/JN7Dz30yNza2vpPqKc3qv62O+bzbKiHO1Wfu+3o0aMfZXuFN6rX2wFIctRPscvnPfjgidlWa+P/qI3loX4bUn+6Sv3pe+++4tChQ89ZXFw8TvgT/pOpn7TGuJjDuPA/fvzBF7XbG79nbd7MZVCfu0ZKeev8/PxtS0tLr9Qfi+0f3kg7AIQ/3jCv0/Eq6+utd6unh0Y11BHJdZ1O54Pq6dOVJwn/3qWIhP8Y9fO8rjcgBAsV/g888PD1zWbrf6r3XdkB9RNzc3PLCwuzv8r2D29onyD88UbbGD30QvVwXYKN7lPUUcmLCP9eeLUJ/5F2HPvei9/KwVgLWfXf9fX1n99h+G++UMrXPvroyUvY/uFN/AwAxTbXW1hYeKbaOLxEbfjm1Yal37oXKyvHbbUJFt/coOjw8uY2t8uJNr7PVQ+fKEP4DwovPcpdkhqW8F78fQciO3jwYCnCX3uqrdyS5D26rrv7scfOfuTs2bVzQf/tbn5gqXbGB+04rKmHL6p66d8S3Mf2tPieS3GK7z3lKU+pnDp16g9VB39pvw1idGMZHpBVbzvGCH/9cHEZwn9z4+v0HUJ7bm6O8B/BC+98mnBmJ432rHbC9ZH/eUk/rxD2k4M+POrn9fv4D6jtxKvVjsLL5+cPvJftacGvdqI4xfdU+P+GenjpFMPBLkP4b3oi5+/PKK+U4a+9jY0NMcXPq+8h/87773/oFranxQ1/fQdgl+IU2ztw4IA+7Pwpkzfm5oR/PsOL8Dcr/HOyPpxOp/NGfUaA7WnhPOEflEl7xIU3KLaZnuM4PzDsTE/6G3NJ+BP+I3v6O2vCf/rrQ62HG06ffmwP29PChf/W7bTtERZej8xHsc3yLpt2OOhLt8oT/pLwH7u9eC3CPxfrQ6yvNy9me1qo8HfDnj1k5hrFNtvT48/kIBxycXtpNYm0P2+n4zUJ//E8fbUE4Z+P9bG2tt5ke1qY8K9GPXfAzDMUm3vdF2zjm8udHcI/d56g/2563QQo2+dcetWQ05v0HYDdEfcU9ELXKDbhX5AjL8IQr+/kOE6F/svASAXyar4RhL8e+8fTT9yY8HdjFr5OsQl/wp9wLaFH/2V7arJXjxz560cvmCd6BsCJWTjfARH+hD9hSPjTf9memuU1YsK/Ex78zw29IC78WxSb8C/KxqM7xjByhCHhT/9le2qY11utIa8dHfnX9V8gYhp/O8kwway8fHn6tqpxFwKUceNBGBbCE1m8P8Kf7WkBPBk5mN+W50FLEIR/MT3bdqpsPPIzUBDhP157cRzbSfv9eZ63QfizPS2Q1+yX53bMkX+H8C+OFx3Dh43HVMMrtztj5oSNyOL9TX37V6vN2IQ/3piedgb+gD/aIjzCv7AeG498fV7Cn/bc1zv//D3nEf54Y3pDL90PfgQoxxhRiGIT/oQ/4U/4T/TM3eN/uEP/xUvD6+0AJDnqp9hmePqmqmw8CK/ihL+0xriYg0tXCX+8cPtI2rAothlet+u12Xjk5/MS/uPVTw8sRfjTf/Em49k0hmJ7/tCq0w6HUt1bfUB45WJnLO+evlrC6n8pZykGCpJSdgl/vLQ9m+LgpR0O/qVbpbnUr//OmGSgoJHaizNjGbZzN+n2fPr0Y+fysD78SxHYnhbUsykOXvrhIErzeV3XqVkluQ48LU/fvKrM4a+9ZrOVi/ZSq8002J4WeHtPcfAyDAd2dgj/TNqLyeGfp/bin9Fie1rA9qLvAOxSHDzCv9jhRfgT/kXqv3hje8I/+JfuiAvnNJAB3srK8V2zs7ONx/VaKc8T0dsBZr7xkNWlpWO7PM9rqPe3I8txHPvEiUca4eui9Q+kzp1bX9uppz5T71a86X5euUe934vj3p/6DLsI/+GeWr+7+7UXNe9M2u9PzauXe9mk299OPPXvM3lYH+q9XRhuz3Nzc/KCCy44eccdd2ywfTY2/B3fsMQIC69bjx8mmGLnyGs2m+KBBx7+V+rpT6u/qznSxMPDS9NT/72hdlD+Wj19w/Ly8j+wfTYq/IODfv16KYbMXPdPFdjWN0cXotg58aS07KWl1dtVZ3wBGzc8PLwsPfVvHbXt+XG1E/Auts9GhH/VN6S/A9C1B8w8Q7Hz7a2s3Pcqwh8PD28annqNK6X8w4MHD17N9jn3XjTPe3cAdgbsKQRH/cGR/zmKnR/vvvse6Hhe933qeY2NER4e3jQ8dQDi6t8rnDp16sNsn3Pr1SKWHvund0dNOyb8XSvBqEIUO/PrhK9Xj3vZGOHh4U3Zu4ntc269eoy3dTvt6NqPu2PbOsXOn6c67m42Rnh4eDnw9rB9zqUXd/VeJzz4nx16QVz4Nyl2Pj3HcZbYGOHh4U3bU69bYvucS8+OeO3oyL+2/4Lo1QB6phbFzq+3uLh4VHW8O9gY4eHhTdOrVisfYvuce68VDf/wGQAxbE+BYufPcxznP+hrctkY4eHhTcn76qWXXnw72+dce81+eW7HHPl3CH8zvKNHj35OdcAXSikfZWOEh4eXsff3u3Y1bp2ZqbbZPufS087A3/BFbwXsEf5meUtLS/93fn5+Qe0EvET959P8283am0PwCqH+/zXqv5845Y3HA+rvc6H/FsH7C31c6Xldz0o23vtInnq/P6g+RyXlz/sF9Xc87v1Jael1cTVhM3jSX22p16/ErV/Vnp+u/vvSNN+fejyq/v1Lk25/O/FsW+h2+vwcrI+Pq79vPD5U5EMzMzOfvuKKy/6a7XOuvaFX7wkfEEmCn2Ln3zt27P5f6nblq6cZDmqj/aHl5eUXTrt+akfppHrYl3J4vXhlZeW9ce9vdfX469ROwGsI/6Ht5SdVe7ktbv2urt7/HvXv35/m+1P+b6nl/8w0++/Zs+fqX//6qYemvT48z7t2dXX1branxfR6LYPwL66nAic34TDt+qn3fTaDz3tmyPsj/MdYv3odZvD+zuSoPdN/8VLz7KQNi2Kb4XW7XpuNx9bnWUr78wbL6L8+CP/x1q+8N+33J4RYykl7JvzxUvVsGkOxPSkTfQc56XAQeaiflPIf0vy8+seYS0tLi/3en+d1c7EzlndPbI5fHbt+u135+bTfn5r3C9M/c6f3FQl/vHQ9m+LgpR0Omz+QysXn/XDKn/ev/Htq9NkZk3nYGcu95zhO34HI1tbW/kY9P5fW+9M/AFxcXLxr2v339OnHzuVhfdibGNvTgno2xcFLPxxELj7v8vLyZ1QG35XixvI2M9ZHvj3VWvrW78SJE+fUOnxXWu9Pzf8Heei/zWYrF+2lVptpsD0t8Pae4uBlGA55+LxvTOnzfnJubv+XCf/024taxpvVXyuF93eiUqn8Lv03vDMm2J4WdHuvz1baFAevROGvzwK8T32uj0z48641GrX/RPhn015WV1dXVC79l0m/P2W+6p577vkG/Te//RdvIp4Ixv6xR1w4p4EI/zE8mav6XXjhvn8vpVyZ0OeVlYr705dddskS4T8Zz//h6sD6qR25X7Mm+JsOfe3/0aNH/4z+S/gXPfytzVF/N9f1CAuvW9tHFaLYhP/Inr4jWp7qt2/f3pO1WvUF+mByzM/bdV33Z/fvv/wDhP8k24s3ykBk3Xa7/WL1+LFx35/699vVDsV/pP/G7YxJtqfFCn837NlDZq5RbMJ/Al7ubi/9hCdcurp793k3q/f38UTJ3+0+PDNT/ZEDBy7/X4T/ZL1Rr5Y4fvz4+v79+5+nnr5N136n70/9W1v9/cLKysrLrM37ptN/I1Oz2Vpje1qY8K9GPXvAzDMUm/CfhpdV/S68cN/K0tLSc9RzPY7CqDeYWVcvffuePbueNql7oRP+yb3Dhw935ucP/EKlUrlFrYLPjOjpfYw/V4/Xq/B/K/23v5fkZgRsn3PpRfO8dwdgd8Q9Bb1Q9gQJ/8KEf9hTOwHvVg/vmZ+ff5YKhucLIb5Tvf959f/2qr+2+nz3q///JfX8E+rfPjg/P7th4Pro7vBMjB18RhPay/79T7hDPT7/oYceubbVav/gxsbG09W6ulqtt4vU8jT+sFrGner5pz3Pe5/+ISH9txj9F2+oV/ONoP9LZemBqh4/GmDcdwT+i9YpNuFf8I2HVDsC+iYzf1PQ9fEG9fn+66jO3Nzc76sAfaVp7eWyyy7W93n4B/ov4Y+39Rs+Kxz+6s8L5omeAYi7Y1uTYrPxYONRrvVh9Yakpb3QXlgfBnuNmPDvhAf/s0MvIPzZeLDxYH30Pq/jOBXaC+2F9WG0F716rx0d+df1XyAiRuzMFNs8T99WVQg2HmzMd/x5aS+0F9aH2V74yL8Vl+dBSxCEfzE923aqbDzysjMmTDytTnsh/FkfZnvNfnluxxz5dwj/4nhCsPHIi+c4tmk7Y7SXKXm12oxN+OON6Wln4A/4oy3CI/wL522w8cilR/jTXvp655+/57ychH+T9WGsN/TS/eAqADnGiEIUO8ee6vh3dbseG3PCf0ef1/O8DRE9fUR7yfDM3eN/uDOl9nJmdXX1PtZHcb1ey0hy1E+xzfD27t39MdXZHyT8Cf+dfF4rwe2baS/Fai9Sytut0DXjrI/ieXbShkWxzfB27971qOrwP67+NtiYT98r6pkY2kuxwl/N97VqtfrLrI9iezads/jeysrKx9XGQA9887VpbMyFEB3Whz6t3m0T/iO1F1H29lKr1TamFP76iP+dat7vueeee77B9rTYnktxyuEtLS39nXp40tzc3JPUxmFBdXC338bXdd2avn/AN08FWrLT6ejhc29NuDFaYn1YZ/UINEm+Vy9T+OvJcZzSD0Tmus5p1VyWVHuZT7I+1N9rVVN7MNR/m0NGWdSjKZ5Ts/yT2lY8zPa0HJ5LccrlLS8vf1U9fHWn3tGjq19WG6Mfip6iHGFj5FWrlfexPj7dVTtfhP8IXnjns+Tt5U/V8zckWB93Hjhw+e+z/cMb2l4oDt4ontpx+Io6Ovj1BBvzt15++aX3sj6mG66TPq2eVvhHj0rL3F6azeZb1MNXdli/ZqXi/gz1wxvBFDbFwRvVUzsBr1EPr1N/ayOw59QG6fWzs1e+mfpNP1z9mxAR/gZ5Dz744Fq1WtW/3fnAiPU7Uq1WXnDFFZfdQf3wBgV/MPaPO+LCGxQbT09LS0u/euDAgXc4jvNsdVB5efQskvp/0nXdR3bvPu8z55+/5zHql5twNSb89XfWtJfN6e67735UPdw6Nzf3RNW3blTP94Rf699eWv/dc8klF3x2ZmamS3/DGxT+1uaov73fg7gjLLxubR9ViGKX2Dt27Ngp9fB+6mfkvd9zf296z/NatJfHT8vLy/prtHvpb3hjhr8bcvr/BsCfuUax8fAI/6zCX3tDfq1Oe8HDSxb+274GdAfMPEOx8fAI/yzDP8lE+8PDG+pVw0f+etJ3AHZH3FPQC12j2Hh4Zg75qm9CRPjj4ZXSq/lGEP567J/eLZ7dmPB3Yxa+TrHx8Iwe713m/P0R/nh4k/fqkSN//bg1vkP0DIATs/AmxcbDMzr8k0yC8MfDM9prxIR/Jzz4nx16AeGPh0f49z6v4zgVwh8Pz2gvevVeOzryr+u/IHp719iZKTYeXvHD3/+8hD8entle+Mi/FZfnwVcA0YVvEP54eJP1/Ju2mBD+wqD3R/vDwxvsNfvluR1z5N8h/PHwJu/5t+Ml/Al/PLwsPO0M/AF/tId6hD8eXiYe4U97wcNL0xt66f7WbQHHGFGIYuPhFSxcPc/b2BxAkPDHwyuq1+upSY76KTYeXnGPrK0c3DeA9oKHl65nJ90QUWw8vJ17RT2tTvjj4Znn2XROPLxsPH07XsJ/+CQ2v3ug/eHhpezZFAcPLxsvySh3ZQt/PTmOw0BkeHgZeDbFwcMrx02DTLmpkTr+p73g4WXRfykOHl7xw3/Sp9XTCv/IRHvBw0tp+6LvAOxSHDy8Yoe/nvybEBH+eHh4wj/4l/aIC29QbDw8M8Pf94wJfylpL3h4KYa/s9X3Rlh43do+qhDFxsMzc6Cg3A9k5Hlei/aCh5dK+Lthzx4yc41i4+ER/lmFv/aSXC1B+8PDGxr+274GdAfMzKU4eHiEf6bhn2Si/eHhDfWqIac36TsAuyPuKeiFrlFsPDwjw9/SNyEi/PHwSunVfCMIfz32j6efuDHh78YsfJ1i4+GZGf6+J3P+/gh/PLzJe/XIkb9+9IJ5omcAnJiFNyk2Hp7R4Z9kEoQ/Hp7RXiMm/Dvhwf/s0AsIfzw8wr/3eR3HqRD+eHhGe9Gr99rRkX9d/wXRgb9jZ6bYeHjFD3//8xL+eHhme+Ej/1ZcngdfAUQXvkH44+FN1tO34zXwtDrhj4dnttfsl+d2zJF/h/DHw5u859+Ol/An/PHwsvC0M/AH/NEe6hH+eHiZeIQ/7QUPL01v6KX7wVcAcowRhSg2Hl7BwtXzvI3NAQQJfzy8onq9nprkqJ9i4+EV98jaysF9A2gveHjpenbSDRHFxsPbuVfU0+qEPx6eeZ5N58TDy8bTt+Ml/IdPYvO7B9ofHl7Knk1x8PCy8ZKMcle28NeT4zgMRIaHl4FnUxw8vHLcNMiUmxqp43/aCx5eFv2X4uDhFT/8J31aPa3wj0y0Fzy8lLYv+g7ALsXBwyt2+OvJvwkR4Y+Hhyf8g39pj7jwBsXGwzMz/H3PmPCXkvaCh5di+DtbfW+Ehdet7aMKUWw8PDMHCsr9QEae57VoL3h4qYS/G/bsITPXKDYeHuGfVfhrL8nVErQ/PLyh4b/ta0B3wMxcioOHR/hnGv5JJtofHt5QrxpyepO+A7A74p6CXugaxcbDMzL8LX0TIsIfD6+UXs03gvDXY/94+okbE/5uzMLXKTYenpnh73sy5++P8MfDm7xXjxz560cvmCd6BsCJWXiTYuPhGR3+SSZB+OPhGe01YsK/Ex78zw69gPDHwyP8e5/XcZwK4Y+HZ7QXvXqvHR351/VfEB34O3Zmio2HV/zw9z8v4Y+HZ7YXPvJvxeV58BVAdOEbhD8e3mQ9fTteA0+rE/54eGZ7zX55bscc+XcIfzy8yXv+7XgJf8IfDy8LTzsDf8Af7aEe4Y+Hl4lH+NNe8PDS9IZeuh98BSDHGFGIYuPhFSxcPc/b2BxAkPDHwyuq1+upSY76KTYeXnGPrK0c3DeA9oKHl65nJ90QUWw8vJ17RT2tTvjj4Znn2XROPLxsPH07XsJ/+CQ2v3ug/eHhpezZFAcPLxsvySh3ZQt/PTmOw0BkeHgZeDbFwcMrx02DTLmpkTr+p73g4WXRfykOHl7xw3/Sp9XTCv/IRHvBw0tp+6LvAOxSHDy8Yoe/nvybEBH+eHh4wj/4l/aIC29QbDw8M8Pf94wJfylpL3h4KYa/s9X3Rlh43do+qhDFxsMzc6Cg3A9k5Hlei/aCh5dK+Lthzx4yc41i4+ER/lmFv/aSXC1B+8PDGxr+274GdAfMzKU4eHiEf6bhn2Si/eHhDfWqIac36TsAuyPuKeiFrlFsPDwjw9/SNyEi/PHwSunVfCMIfz32j6efuDHh78YsfJ1i4+GZGf6+J3P+/gh/PLzJe/XIkb9+9IJ5omcAnJiFNyk2Hp7R4Z9kEoQ/Hp7RXiMm/Dvhwf/s0AsIfzw8wr/3eR3HqRD+eHhGe9Gr99rRkX9d/wXRgb9jZ6bYeHjFD3//8xL+eHhme+Ej/1ZcngdfAUQXvkH44+FN1tO34zXwtDrhj4dnttfsl+d2zJF/h/DHw5u859+Ol/An/PHwsvC0M/AH/NEe6hH+eHiZeIQ/7QUPL01v6KX7wVcAcowRhSg2Hl7BwtXzvI3NAQQJfzy8onq9nprkqJ9i4+EV98jaysF9A2gveHjpenbSDRHFxsPbuVfU0+qEPx6eeZ5N58TDy8bTt+Ml/IdPYvO7B9ofHl7Knk1x8PCy8ZKMcle28NeT4zgMRIaHl4FnUxw8vHLcNMiUmxqp43/aCx5eFv2X4uDhFT/8J31aPa3wj0y0Fzy8lLYv+g7ALsXBwyt2+OvJvwkR4Y+Hhyf8g39pj7jwBsXGwzMz/H3PmPCXkvaCh5di+DtbfW+Ehdet7aMKUWw8PDMHCsr9QEae57VoL3h4qYS/G/bsITPXKDYeHuGfVfhrL8nVErQ/PLyh4b/ta0B3wMxcioOHR/hnGv5JJtofHt5QrxpyepO+A7A74p6CXugaxcbDMzL8LX0TIsIfD6+UXs03gvDXY/94+okbE/5uzMLXKTYenpnh73sy5++P8MfDm7xXjxz560cvmCd6BsCJWXiTYuPhGR3+SSZB+OPhGe01YsK/Ex78zw69gPDHwyP8e5/XcZwK4Y+HZ7QXvXqvHR351/VfEB34O3Zmio2HV/zw9z8v4Y+HZ7YXPvJvxeV58BVAdOEbhD8e3mQ9fTteA0+rE/54eGZ7zX55bscc+XcIfzy8yXv+7XgJf8IfDy8LTzsDf8Af7aEe4Y+Hl4lH+NNe8PDS9IZeuh98BSDHGFGIYuPhFSxcPc/b2BxAkPDHwyuq1+upSY76KTYeXnGPrK0c3DeA9oKHl65nJ90QUWw8vJ17RT2tTvjj4Znn2XROPLxsPH07XsJ/+CQ2v3ug/eHhpezZFAcPLxsvySh3ZQt/PTmOw0BkeHgZeDbFwcMrx02DTLmpkTr+p73g4WXRfykOHl7xw3/Sp9XTCv/IRHvBw0tp+6LvAOxSHDy8Yoe/nvybEBH+eHh4wj/4l/aIC29QbDw8M8Pf94wJfylpL3h4KYa/s9X3Rlh43do+qhDFxsMzc6Cg3A9k5Hlei/aCh5dK+Lthzx4yc41i4+ER/lmFv/aSXC1B+8PDGxr+274GdAfMzKU4eHiEf6bhn2Si/eHhDfWqIac36TsAuyPuKeiFrlFsPDwjw9/SNyEi/PHwSunVfCMIfz32j6efuDHh78YsfJ1i4+GZGf6+J3P+/gh/PLzJe/XIkb9+9IJ5omcAnJiFNyk2Hp7R4Z9kEoQ/Hp7RXiMm/Dvhwf/s0AsIfzw8wr/3eR3HqRD+eHhGe9Gr99rRkX9d/wXRgb9jZ6bYeHjFD3//8xL+eHhme+Ej/1ZcngdfAUQXvkH44+FN1tO34zXwtDrhj4dnttfsl+d2zJF/h/DHw5u859+Ol/An/PHwsvC0M/AH/NEe6hH+eHiZeIQ/7QUPL01v6KX7wVcAcowRhSg2Hl7BwtXzvI3NAQQJfzy8onq9nprkqJ9i4+EV98jaysF9A2gveHjpenbSDRHFxsPbuVfU0+qEPx6eeZ5N58TDy8bTt+Ml/IdPYvO7B9ofHl7Knk1x8PCy8ZKMcle28NeT4zgMRIaHl4FnUxw8vHLcNMiUmxqp43/aCx5eFv2X4uDhFT/8J31aPa3wj0y0Fzy8lLYv+g7ALsXBwyt2+OvJvwkR4Y+Hhyf8g39pj7jwBsXGwzMz/H3PmPCXkvaCh5di+DtbfW+Ehdet7aMKUWw8PDMHCsr9QEae57VoL3h4qYS/G/bsITPXKDYeHuGfVfhrL8nVErQ/PLyh4b/ta0B3wMxcioOHR/hnGv5JJtofHt5QrxpyepO+A7A74p6CXugaxcbDS+4JIeS0wrXT8Zo7/LxyiuHfpb3g4U3Mq/lG0Kf12D+efuLGhL8bs/B1io2HN7bXnOKR9bkdUs1pHfmrHaU12gse3kS8emSHXj96W/0x8hqH8MfDS8dTQffAlMJfh+qDO7QenNZpf/X/HqS94OGN7cVdvdcJD/5nh14QF/5Nio2HNxnPcZw7pxH+vTcr5Z07+byVirs0jfDvnZZ03btoL3h4Y3vRq/fa0ZF/bf8F0YG/9UxcioOHN0Hvyiuv/IoKvW9M4cj65NLS0l07+bz1eu2LVui7+Ax/8HfP4uLiI7QXPLyJeq1o+IfPAIhhewoUGw9vPK9SEV3XdT6R9ZG1Ovr/S2uEH9aFP++FF+47LYT1uYzDX7/XD9Fe8PAm6jX75bkdc+TfIfzx8NLxHMd5Z5bh74fqHyX5vLbt/GnGl/pJ9e+3017w8CbiaWfgb/iiPdQj/PHw0vP277/8bxT15QzD/3MrKyuHk3zeRqP+x+pxNaPw1+/1L1ZXV++mveDhTcQbeul+0Et71wUS/nh46XuVSuX1GR1Z6yPqn0v6ef/5n7/UFEK8JovwV//eVjsAr6G94OFl5/UGBVhaWkm0IaLYeHg79/bs2XXXqVNnLlbPn5pyuP6GOvr/o3E+76lTp+7cu3fv9WpH4Nq0wl9Pyv/F5eXlD9Fe8PCy82wr4USx8fCSeyoof04F42fTCn91NP3pffv2vXYSn1ct92VqOXdO8v1F5vnA0tLSW2gveHjZeol2ACg2Ht543uLiYksF3/PU3x0pHFl/QR1Rv/COO+7YmMTnVeF8plKpPEc9vXfS4a+mj6udlR+zQrcepr3g4WXj2RQHD2863rFjx07NzMw8Sz39iwmG//vX19dv1qE9yc975MiR+13XvVE9PTzB8P+Dffv2PW91dbVJe8HDy94TFAcPb/re/Pz8v1UPb1Z/5ycJV3UU/ah6eM3y8vIfpvx5HfVeX60ef1n9NRKG/4Pq/f6Meq/vp73g4U3H63VmioOHN33v1KlT/3jppZfe5nleRwXotUKIkcJV/ffD6uG/q8eXrKysfC6DzyvVe/37vXv3/onjOHqgkautzaHDh4a/+rfj6nO96dy5cy89fvz4l2kveHjTC399B2BBcfDw8uXdcMPTZ06ePPlc9fRmFZrfpthZfWagu5mup9TDkgrSf1LPP3HgwIFPHT58uDOtz3v27LnayZNn9Pv8HvX3LepvVu247N3M++5J9fyoen6Hev5RtYPyd1bMHQlpL3h4mXra0aYUIy68ETlbQLHx8PDw8PDMC3/HN6Q9wsLr1vZRhSg2Hh4eHh6eWeHvhj17yMw1io2Hh4eHh2d8+Fejnjtg5hmKjYeHh4eHZ7xXDTm9Sd/63x1xT0EvdI1i4+Hh4eHhGeXVfCMI/97YP/qJGxP+bszC1yk2Hh4eHh6eUV49cuSvH71gnugZACdm4U2KjYeHh4eHZ5TXiAn/TnjUXzf0grjwb1FsPDw8PDw84zw9dUNeOxz+WzsA/ql/K7LwbTNTbDw8PDw8PCM8GTmY35bnwRmA6MI3CH88PDw8PDzjvWa/PHdjjvw9wh8PDw8PD89oTzsDf8AfvREQ4Y+Hh4eHh2e+N/TS/eAMgBxjRCGKjYeHh4eHZ5gnrDEmio2Hh4eHh2eml3gHgGLj4eHh4eGZ6yXaAaDYeHh4eHh4ZnuC4uDh4eHh4ZXPExQHDw8PDw+vXN6OdgAoNh4eHh4eXjHCX98BWFAcPDw8PDy80nja0aa0R1x4g2Lj4eHh4eEZH/5O8N/2CAuvR+aj2Hh4eHh4eOaFvxv27CEz1yg2Hh4eHh6e8eFfjXrugJlnKDYeHh4eHp7xXjXk9CY97o874p6CXugaxcbDw8PDwzPKq/lGEP567B9PP3Fjwt+NWfg6xcbDw8PDwzPKq0eO/PWjF8wTPQPgxCy8SbHx8PDw8PCM8hox4d/Rp/637QCoF8SFf4ti4+Hh4eHhGefpqRvy2uHw39oB8E/9W5GFb5uZYuPh4eHh4RnhycjB/LY8D84ARBe+Qfjj4eHh4eEZ7zX75bkbc+TvEf54eHh4eHhGe9oZ+AP+6I2ACH88PDw8PDzzvaGX7gdnAOQYIwpRbDw8PDw8PMM8YY0xUWw8PDw8PDwzvcQ7ABQbDw8PDw/PXC/RDgDFxsPDw8PDM9sTFAcPDw8PD698nqA4eHh4eHh45fJ2tANAsfHw8PDw8IoR/voOwILi4OHh4eHhlcbTjjalPeLCGxQbDw8PDw/P+PB3gv+2R1h4PTIfxcbDw8PDwzMv/N2wZw+ZuUax8fDw8PDwjA//atRzB8w8Q7Hx8PDw8PCM96ohpzfpcX/cEfcU9ELXKDYeHh4eHp5RXs03gvDXY/94+okbE/5uzMLXKTYeHh4eHp5RXj1y5K8fvWCe6BkAJ2bhTYqNh4eHh4dnlNeICf+OPvW/bQdAvSAu/FsUGw8PDw8PzzhPT92Q1w6H/9YOgH/q34osfNvMFBsPDw8PD88IT0YO5rfleXAGILrwDcIfDw8PDw/PeK/ZL8/dmCN/j/DHw8PDw8Mz2tPOwB/wR28ERPjj4eHh4eGZ7w29dD84AyDHGFGIYuPh4eHh4RnmCWuMiWLj4eHh4eGZ6SXeAaDYeHh4eHh45nruGOEfvcnAuLcLxsPDw8PDw8vIEwkXXrcme7tgPDw8PDw8vAw9kWDhcUMEN8ccqAAPDw8PDw8vI29HOwADhghuJbx0EA8PDw8PDy9jLzDFDhZejVl4e4wPg4eHh4eHh5e9p88mSDHizHFDBHfGWDgeHh4eHh5e9p7jG9IZcebowr0xF46Hh4eHh4c3Ha/3+mGXAdrBnkLwP9SCPSv5hIeHh4eHhzd9r/8ZgLghgpP+0hAPDw8PDw8vV578/4y1+ER5JWX7AAAAAElFTkSuQmCC;" vertex="1" parent="1">
          <mxGeometry x="10" y="260" width="112" height="112" as="geometry" />
        </mxCell>
        <mxCell id="i3Yv_NpqQilnctsLPiVK-12" value="" style="group" vertex="1" connectable="0" parent="1">
          <mxGeometry x="190" y="221" width="100" height="100" as="geometry" />
        </mxCell>
        <mxCell id="i3Yv_NpqQilnctsLPiVK-10" value="" style="rounded=0;whiteSpace=wrap;html=1;fillColor=#dae8fc;strokeColor=#6c8ebf;" vertex="1" parent="i3Yv_NpqQilnctsLPiVK-12">
          <mxGeometry width="100" height="100" as="geometry" />
        </mxCell>
        <mxCell id="i3Yv_NpqQilnctsLPiVK-5" value="" style="shape=image;html=1;verticalAlign=top;verticalLabelPosition=bottom;labelBackgroundColor=#ffffff;imageAspect=0;aspect=fixed;image=https://cdn1.iconfinder.com/data/icons/yoga-23/24/yoga-11-128.png" vertex="1" parent="i3Yv_NpqQilnctsLPiVK-12">
          <mxGeometry x="26" y="40" width="48" height="48" as="geometry" />
        </mxCell>
        <mxCell id="i3Yv_NpqQilnctsLPiVK-8" value="Exercise Recognition" style="text;html=1;strokeColor=none;fillColor=none;align=center;verticalAlign=middle;whiteSpace=wrap;rounded=0;" vertex="1" parent="i3Yv_NpqQilnctsLPiVK-12">
          <mxGeometry x="20" y="10" width="60" height="30" as="geometry" />
        </mxCell>
        <mxCell id="i3Yv_NpqQilnctsLPiVK-13" value="" style="group;fillColor=#d0cee2;strokeColor=#56517e;fillStyle=auto;" vertex="1" connectable="0" parent="1">
          <mxGeometry x="290" y="221" width="100" height="100" as="geometry" />
        </mxCell>
        <mxCell id="i3Yv_NpqQilnctsLPiVK-16" value="Live Feedback" style="text;html=1;strokeColor=none;fillColor=none;align=center;verticalAlign=middle;whiteSpace=wrap;rounded=0;" vertex="1" parent="i3Yv_NpqQilnctsLPiVK-13">
          <mxGeometry x="20" y="10" width="60" height="30" as="geometry" />
        </mxCell>
        <mxCell id="i3Yv_NpqQilnctsLPiVK-17" value="" style="shape=image;html=1;verticalAlign=top;verticalLabelPosition=bottom;labelBackgroundColor=#ffffff;imageAspect=0;aspect=fixed;image=https://cdn1.iconfinder.com/data/icons/unicons-line-vol-3/24/feedback-128.png" vertex="1" parent="i3Yv_NpqQilnctsLPiVK-13">
          <mxGeometry x="28" y="44" width="44" height="44" as="geometry" />
        </mxCell>
        <mxCell id="i3Yv_NpqQilnctsLPiVK-18" value="" style="group;fillColor=#bac8d3;strokeColor=#23445d;fillStyle=auto;" vertex="1" connectable="0" parent="1">
          <mxGeometry x="190" y="321" width="100" height="100" as="geometry" />
        </mxCell>
        <mxCell id="i3Yv_NpqQilnctsLPiVK-19" value="Motivation" style="text;html=1;strokeColor=none;fillColor=none;align=center;verticalAlign=middle;whiteSpace=wrap;rounded=0;" vertex="1" parent="i3Yv_NpqQilnctsLPiVK-18">
          <mxGeometry x="20" y="2" width="60" height="30" as="geometry" />
        </mxCell>
        <mxCell id="i3Yv_NpqQilnctsLPiVK-21" value="" style="shape=image;html=1;verticalAlign=top;verticalLabelPosition=bottom;labelBackgroundColor=#ffffff;imageAspect=0;aspect=fixed;image=https://cdn2.iconfinder.com/data/icons/office-icon-set-3/128/motivation.png;fillStyle=auto;fillColor=#FF6666;" vertex="1" parent="i3Yv_NpqQilnctsLPiVK-18">
          <mxGeometry x="31" y="40" width="38" height="38" as="geometry" />
        </mxCell>
        <mxCell id="i3Yv_NpqQilnctsLPiVK-22" value="" style="group;fillColor=#d0cee2;strokeColor=#56517e;fillStyle=auto;" vertex="1" connectable="0" parent="1">
          <mxGeometry x="290" y="321" width="100" height="100" as="geometry" />
        </mxCell>
        <mxCell id="i3Yv_NpqQilnctsLPiVK-23" value="Critiques" style="text;html=1;strokeColor=none;fillColor=none;align=center;verticalAlign=middle;whiteSpace=wrap;rounded=0;" vertex="1" parent="i3Yv_NpqQilnctsLPiVK-22">
          <mxGeometry x="20" y="3" width="60" height="30" as="geometry" />
        </mxCell>
        <mxCell id="i3Yv_NpqQilnctsLPiVK-26" value="" style="aspect=fixed;html=1;points=[];align=center;image;fontSize=12;image=img/lib/azure2/general/Globe_Error.svg;fillStyle=auto;fillColor=#FF6666;" vertex="1" parent="i3Yv_NpqQilnctsLPiVK-22">
          <mxGeometry x="33" y="39" width="34" height="40.07" as="geometry" />
        </mxCell>
        <mxCell id="i3Yv_NpqQilnctsLPiVK-27" value="Perform Exercises" style="ellipse;whiteSpace=wrap;html=1;fillStyle=auto;fillColor=#FF6666;" vertex="1" parent="1">
          <mxGeometry x="480" y="276" width="120" height="80" as="geometry" />
        </mxCell>
        <mxCell id="i3Yv_NpqQilnctsLPiVK-28" value="" style="shape=flexArrow;endArrow=classic;html=1;rounded=0;" edge="1" parent="1">
          <mxGeometry width="50" height="50" relative="1" as="geometry">
            <mxPoint x="400" y="321" as="sourcePoint" />
            <mxPoint x="470" y="321" as="targetPoint" />
          </mxGeometry>
        </mxCell>
        <mxCell id="i3Yv_NpqQilnctsLPiVK-29" value="" style="shape=flexArrow;endArrow=classic;html=1;rounded=0;" edge="1" parent="1">
          <mxGeometry width="50" height="50" relative="1" as="geometry">
            <mxPoint x="110" y="321" as="sourcePoint" />
            <mxPoint x="180" y="321" as="targetPoint" />
          </mxGeometry>
        </mxCell>
      </root>
    </mxGraphModel>
  </diagram>
</mxfile>
